<svg width="139" height="951" viewBox="0 0 139 951" fill="none" xmlns="http://www.w3.org/2000/svg">
<path d="M138.6 114.8L112 114.8L112 73L0 73V41.8L112 41.8L112 2.83122e-07L138.6 2.83122e-07L138.6 114.8ZM0 247.245C4.8 245.779 9.73333 244.112 14.8 242.245C19.8667 240.512 24.9333 238.779 30 237.045L30 183.045C24.9333 181.312 19.8667 179.512 14.8 177.645C9.73333 175.912 4.8 174.312 0 172.845L0 140.445C14.9333 145.645 28.7333 150.579 41.4 155.245C54.0667 159.912 66 164.445 77.2 168.845C88.4 173.379 99 177.779 109 182.045C119.133 186.445 129 190.979 138.6 195.645V225.445C129 229.979 119.133 234.445 109 238.845C99 243.245 88.4 247.645 77.2 252.045C66 256.579 54.0667 261.179 41.4 265.845C28.7333 270.512 14.9333 275.445 0 280.645V247.245ZM107.2 209.845C105.2 209.179 102.467 208.179 99 206.845C95.5333 205.512 91.5333 203.979 87 202.245C82.4667 200.512 77.4667 198.579 72 196.445C66.5333 194.445 60.8 192.379 54.8 190.245L54.8 229.645C60.8 227.512 66.5333 225.445 72 223.445C77.4667 221.445 82.4667 219.512 87 217.645C91.5333 215.912 95.5333 214.379 99 213.045C102.467 211.712 105.2 210.645 107.2 209.845ZM138.6 334.586V365.786L0 365.786V334.586L138.6 334.586ZM123.8 526.867C118.333 528.467 112.133 530.201 105.2 532.067C98.4 534.067 91.3333 536.134 84 538.267C76.6667 540.534 69.3333 542.801 62 545.067C54.6667 547.334 47.8667 549.534 41.6 551.667C48.4 553.401 55.8 555.134 63.8 556.867C71.8 558.734 80.0667 560.467 88.6 562.067C97.1333 563.667 105.6 565.201 114 566.667C122.533 568.267 130.733 569.734 138.6 571.067L138.6 603.467C115.4 598.801 91.8667 593.401 68 587.267C44.1333 581.267 21.4667 574.734 0 567.667V539.067C12.8 534.401 26.2 529.867 40.2 525.467C54.3333 521.067 68.4667 516.734 82.6 512.467C68.4667 508.201 54.3333 503.934 40.2 499.667C26.2 495.401 12.8 490.934 0 486.267V457.667C21.4667 450.601 44.1333 444.001 68 437.867C91.8667 431.867 115.4 426.534 138.6 421.867V455.667C130.733 457.001 122.533 458.467 114 460.067C105.6 461.667 97.1333 463.334 88.6 465.067C80.0667 466.801 71.8 468.534 63.8 470.267C55.8 472.134 48.4 474.001 41.6 475.867C48.1333 478.267 55.0667 480.601 62.4 482.867C69.7333 485.134 77.0667 487.334 84.4 489.467C91.7333 491.601 98.8 493.534 105.6 495.267C112.4 497.134 118.467 498.801 123.8 500.267L123.8 526.867ZM0 744.308C4.8 742.841 9.73333 741.174 14.8 739.308C19.8667 737.574 24.9333 735.841 30 734.108L30 680.108C24.9333 678.374 19.8667 676.574 14.8 674.708C9.73333 672.974 4.8 671.374 0 669.908L0 637.508C14.9333 642.708 28.7333 647.641 41.4 652.308C54.0667 656.974 66 661.508 77.2 665.908C88.4 670.441 99 674.841 109 679.108C119.133 683.508 129 688.041 138.6 692.708V722.508C129 727.041 119.133 731.508 109 735.908C99 740.308 88.4 744.708 77.2 749.108C66 753.641 54.0667 758.241 41.4 762.908C28.7333 767.574 14.9333 772.508 0 777.708V744.308ZM107.2 706.908C105.2 706.241 102.467 705.241 99 703.908C95.5333 702.574 91.5333 701.041 87 699.308C82.4667 697.574 77.4667 695.641 72 693.508C66.5333 691.508 60.8 689.441 54.8 687.308L54.8 726.708C60.8 724.574 66.5333 722.508 72 720.508C77.4667 718.508 82.4667 716.574 87 714.708C91.5333 712.974 95.5333 711.441 99 710.108C102.467 708.774 105.2 707.708 107.2 706.908ZM0 924.648C15.8667 915.715 31.5333 906.048 47 895.648C62.4667 885.248 77.0667 874.182 90.8 862.448L0 862.448V831.648L138.6 831.648V857.048C134.2 861.448 128.8 866.315 122.4 871.648C116 876.982 109.133 882.382 101.8 887.848C94.6 893.448 87.0667 898.982 79.2 904.448C71.4667 909.915 64 915.048 56.8 919.848H138.6L138.6 950.848L0 950.848L0 924.648Z" fill="url(#paint0_linear_19_208)"/>
<defs>
<linearGradient id="paint0_linear_19_208" x1="74.0001" y1="-3.99999" x2="65.789" y2="966.994" gradientUnits="userSpaceOnUse">
<stop stop-color="#E60000"/>
<stop offset="0.309132" stop-color="#FFCC00"/>
<stop offset="0.65625" stop-color="#007F00"/>
<stop offset="1" stop-color="#0000CC"/>
</linearGradient>
</defs>
</svg>
